<svg xmlns="http://www.w3.org/2000/svg" viewBox="0 0 197.11 219.51"><defs><style>.cls-1{fill:#fff2c1;}.cls-2{fill:#f4d670;}.cls-3{fill:#efc24e;}.cls-4{fill:#d80;}.cls-5{fill:#00c272;}.cls-6{fill:#45c4eb;}.cls-7{fill:#ff576d;}</style></defs><g id="Layer_1" data-name="Layer 1"><path class="cls-1" d="M98.55,214a20.65,20.65,0,0,1-10.32-2.77l-72.4-41.8A20.7,20.7,0,0,1,5.5,151.55V68A20.7,20.7,0,0,1,15.83,50.07l72.4-41.8a20.63,20.63,0,0,1,20.65,0l72.4,41.8A20.7,20.7,0,0,1,191.61,68v83.59a20.7,20.7,0,0,1-10.33,17.89l-72.4,41.8A20.66,20.66,0,0,1,98.55,214Z"/><path class="cls-2" d="M98.55,11a15.17,15.17,0,0,1,7.58,2l72.4,41.8A15.16,15.16,0,0,1,186.11,68v83.59a15.16,15.16,0,0,1-7.58,13.13l-72.4,41.8a15.15,15.15,0,0,1-15.15,0l-72.4-41.8A15.16,15.16,0,0,1,11,151.55V68a15.16,15.16,0,0,1,7.58-13.13L91,13a15.16,15.16,0,0,1,7.57-2m0-11A26.19,26.19,0,0,0,85.48,3.5L13.08,45.3A26.23,26.23,0,0,0,0,68v83.59a26.23,26.23,0,0,0,13.08,22.66L85.48,216a26.17,26.17,0,0,0,26.15,0l72.4-41.8a26.23,26.23,0,0,0,13.08-22.66V68A26.23,26.23,0,0,0,184,45.3L111.63,3.5A26.2,26.2,0,0,0,98.55,0Z"/><polygon class="cls-3" points="150.46 139.06 97.83 168.66 97.83 109.75 150.46 80.15 150.46 139.06"/><polygon class="cls-4" points="45.19 139.06 97.83 168.66 97.83 109.75 45.19 80.15 45.19 139.06"/><polygon class="cls-2" points="97.83 49.95 45.19 80.15 97.83 109.75 150.46 80.15 97.83 49.95"/><polygon class="cls-5" points="127.21 125.92 97.83 142.45 97.83 109.56 127.21 93.02 127.21 125.92"/><polygon class="cls-6" points="68.44 125.92 97.83 142.45 97.83 109.56 68.44 93.02 68.44 125.92"/><polygon class="cls-7" points="97.83 76.16 68.44 93.02 97.83 109.56 127.21 93.02 97.83 76.16"/></g></svg>