<svg xmlns="http://www.w3.org/2000/svg" viewBox="0 0 197.11 219.51"><defs><style>.cls-1{fill:#fff2c1;}.cls-2{fill:#f4d670;}.cls-3{fill:#efc24e;}.cls-4{fill:#00abe2;}.cls-5{fill:#00c272;}</style></defs><g id="Layer_1" data-name="Layer 1"><path class="cls-1" d="M98.55,214a20.65,20.65,0,0,1-10.32-2.77l-72.4-41.8A20.72,20.72,0,0,1,5.5,151.55V68A20.7,20.7,0,0,1,15.83,50.07l72.4-41.8a20.63,20.63,0,0,1,20.65,0l72.4,41.8A20.7,20.7,0,0,1,191.61,68v83.59a20.72,20.72,0,0,1-10.33,17.89l-72.4,41.8A20.66,20.66,0,0,1,98.55,214Z"/><path class="cls-2" d="M98.55,11a15.17,15.17,0,0,1,7.58,2l72.4,41.8A15.16,15.16,0,0,1,186.11,68v83.59a15.16,15.16,0,0,1-7.58,13.13l-72.4,41.8a15.15,15.15,0,0,1-15.15,0l-72.4-41.8A15.16,15.16,0,0,1,11,151.55V68a15.16,15.16,0,0,1,7.58-13.13L91,13a15.16,15.16,0,0,1,7.57-2m0-11A26.19,26.19,0,0,0,85.48,3.5L13.08,45.3A26.23,26.23,0,0,0,0,68v83.59a26.23,26.23,0,0,0,13.08,22.66L85.48,216a26.17,26.17,0,0,0,26.15,0l72.4-41.8a26.23,26.23,0,0,0,13.08-22.66V68A26.23,26.23,0,0,0,184,45.3L111.63,3.5A26.2,26.2,0,0,0,98.55,0Z"/><path class="cls-3" d="M98.55,179.05a69.3,69.3,0,1,1,69.3-69.3A69.38,69.38,0,0,1,98.55,179.05Zm0-126.15a56.86,56.86,0,1,0,56.86,56.85A56.91,56.91,0,0,0,98.55,52.9Z"/><path class="cls-4" d="M98.55,179.05a6.22,6.22,0,0,1,0-12.44,56.92,56.92,0,0,0,56.86-56.86,6.22,6.22,0,0,1,12.44,0A69.38,69.38,0,0,1,98.55,179.05Z"/><path class="cls-2" d="M98.55,144.4a34.65,34.65,0,1,1,34.65-34.65A34.68,34.68,0,0,1,98.55,144.4Zm0-56.89a22.25,22.25,0,1,0,22.25,22.24A22.27,22.27,0,0,0,98.55,87.51Z"/><path class="cls-5" d="M127,116a6.2,6.2,0,0,1-6.2-6.21A22.27,22.27,0,0,0,98.55,87.51a6.2,6.2,0,1,1,0-12.4,34.68,34.68,0,0,1,34.65,34.64A6.21,6.21,0,0,1,127,116Z"/></g></svg>